<?xml version="1.0" encoding="UTF-8" standalone="no"?>
<svg
   id="Layer_1"
   data-name="Layer 1"
   viewBox="0 0 182.041 139.42002"
   version="1.1"
   sodipodi:docname="authentik.svg"
   width="182.041"
   height="139.42001"
   inkscape:version="1.4.2 (f4327f4, 2025-05-13)"
   xmlns:inkscape="http://www.inkscape.org/namespaces/inkscape"
   xmlns:sodipodi="http://sodipodi.sourceforge.net/DTD/sodipodi-0.dtd"
   xmlns="http://www.w3.org/2000/svg"
   xmlns:svg="http://www.w3.org/2000/svg">
  <sodipodi:namedview
     id="namedview18"
     pagecolor="#ffffff"
     bordercolor="#000000"
     borderopacity="0.25"
     inkscape:showpageshadow="true"
     inkscape:pageopacity="0.0"
     inkscape:pagecheckerboard="0"
     inkscape:deskcolor="#d1d1d1"
     showborder="false"
     borderlayer="true"
     inkscape:zoom="1.8538066"
     inkscape:cx="478.74466"
     inkscape:cy="47.200177"
     inkscape:window-width="3840"
     inkscape:window-height="2054"
     inkscape:window-x="-11"
     inkscape:window-y="-11"
     inkscape:window-maximized="1"
     inkscape:current-layer="Layer_1" />
  <defs
     id="defs1">
    <style
       id="style1">.cls-1{fill:#fd4b2d;}</style>
  </defs>
  <rect
     class="cls-1"
     x="99.510765"
     y="28.810007"
     width="6.3699999"
     height="18.200001"
     id="rect9" />
  <rect
     class="cls-1"
     x="116.08076"
     y="28.040007"
     width="6.3699999"
     height="14.23"
     id="rect10" />
  <path
     class="cls-1"
     d="m 23.240764,48.880006 a 23.23,23.23 0 0 0 -20.4199999,12.13 H 13.620764 c 4.79,-4.13 11.73,-5.33 16.79,0 h 11.39 c -4.46,-6.04 -11.15,-12.13 -18.56,-12.13 z"
     id="path10" />
  <path
     class="cls-1"
     d="m 38.660764,71.990006 c -14.89,31.150004 -40.9999999,4.6 -25,-11 H 2.8207641 c -8.47,14.76 3.24,34.68 20.4199999,34.23 13.28,0 24.24,-19.72 24.24,-23.21 0,-1.54 -2.14,-6.25 -5.68,-11 h -11.39 a 40.52,40.52 0 0 1 8.25,10.98 z m 0.4,-0.91 z"
     id="path11" />
  <path
     class="cls-1"
     d="m 182.03076,28.590006 v 82.290004 a 28.62,28.62 0 0 1 -28.62,28.54 h -12.11 v -28 H 83.350764 v 28 h -12.13 a 28.62,28.62 0 0 1 -28.59,-28.54 V 84.960006 h 91.869996 v -49.46 H 90.150764 v 27.79 h -47.52 v -34.7 a 27.43,27.43 0 0 1 0.19,-3.29 27.09,27.09 0 0 1 0.71,-3.84 c 0.1,-0.41 0.22,-0.82 0.34,-1.21 a 2.13,2.13 0 0 1 0.09,-0.3 c 0.07,-0.21 0.13,-0.4 0.2,-0.59 0.07,-0.19 0.14,-0.4 0.21,-0.59 0.07,-0.19 0.16,-0.44 0.25,-0.65 0.09,-0.21 0.18,-0.43 0.26,-0.64 a 29.35,29.35 0 0 1 2.6,-4.82 v -0.05 c 0.26,-0.37 0.53,-0.75 0.81,-1.12 0.28,-0.37 0.47,-0.61 0.7,-0.91 0.23,-0.3 0.57,-0.6699995 0.86,-0.9999995 0.29,-0.33 0.56,-0.63 0.86,-0.93 v 0 a 4.53,4.53 0 0 1 0.49,-0.49 29.23,29.23 0 0 1 3.4,-2.84 c 0.32,-0.24 0.66,-0.46 1,-0.68 0.34,-0.22 0.77,-0.49 1.17,-0.72 a 23.78,23.78 0 0 1 2.29,-1.21 l 0.75,-0.34 a 27.84,27.84 0 0 1 3.35,-1.21 c 0.44,-0.13 0.88,-0.24000002 1.33,-0.35000002 a 6.19,6.19 0 0 1 0.65,-0.15 28.86,28.86 0 0 1 3.87,-0.57 h 0.56 0.28 c 0.43,0 0.87,0 1.31,0 h 82.249996 c 0.43,0 0.87,0 1.3,0 h 0.28 0.56 a 29.25,29.25 0 0 1 3.88,0.57 c 0.22,0 0.43,0.09 0.65,0.15 0.45,0.11 0.88,0.22000002 1.32,0.35000002 a 27.23,27.23 0 0 1 3.35,1.21 l 0.75,0.34 a 25.19,25.19 0 0 1 2.3,1.21 c 0.39,0.23 0.78,0.47 1.16,0.72 0.38,0.25 0.69,0.44 1,0.68 a 29.23,29.23 0 0 1 3.91,3.36 q 0.45,0.45 0.87,0.93 c 0.29,0.32 0.57,0.6599995 0.85,0.9999995 l 0.71,0.91 c 0.28,0.37 0.54,0.75 0.8,1.12 v 0.05 a 28.61,28.61 0 0 1 2.6,4.82 l 0.27,0.64 0.24,0.65 c 0.08,0.19 0.15,0.39 0.22,0.59 l 0.19,0.59 c 0,0.09 0.06,0.19 0.1,0.3 0.11,0.39 0.23,0.8 0.34,1.21 a 28.56,28.56 0 0 1 0.7,3.84 27.42,27.42 0 0 1 0.27,3.26 z"
     id="path12"
     style="display:inline" />
  <path
     class="cls-1"
     d="M 177.17076,12.660006 H 47.480764 A 28.59,28.59 0 0 1 71.210764,6.4778555e-6 H 153.41076 A 28.59,28.59 0 0 1 177.17076,12.660006 Z"
     id="path13" />
  <path
     class="cls-1"
     d="M 181.84076,25.310006 H 42.810764 a 28.29,28.29 0 0 1 4.67,-12.65 H 177.17076 a 28.17,28.17 0 0 1 4.67,12.65 z"
     id="path14" />
  <path
     class="cls-1"
     d="m 182.04076,28.590006 v 9.37 h -47.54 v -2.46 H 90.150764 v 2.46 h -47.53 v -9.37 a 27.43,27.43 0 0 1 0.19,-3.29 H 181.81076 a 27.42,27.42 0 0 1 0.23,3.29 z"
     id="path15" />
  <rect
     class="cls-1"
     x="42.620762"
     y="37.960007"
     width="47.540001"
     height="12.66"
     id="rect15" />
  <rect
     class="cls-1"
     x="134.50076"
     y="37.960007"
     width="47.540001"
     height="12.66"
     id="rect16" />
  <rect
     class="cls-1"
     x="42.620762"
     y="50.620007"
     width="47.540001"
     height="12.65"
     id="rect17" />
  <rect
     class="cls-1"
     x="134.50076"
     y="50.620007"
     width="47.540001"
     height="12.65"
     id="rect18" />
</svg>
