<?xml version="1.0" encoding="UTF-8" standalone="no"?>
<svg
   width="72.001221"
   height="71.997437"
   fill="none"
   version="1.1"
   id="svg4"
   sodipodi:docname="jellyfin.svg"
   inkscape:version="1.4.2 (f4327f4, 2025-05-13)"
   xmlns:inkscape="http://www.inkscape.org/namespaces/inkscape"
   xmlns:sodipodi="http://sodipodi.sourceforge.net/DTD/sodipodi-0.dtd"
   xmlns:xlink="http://www.w3.org/1999/xlink"
   xmlns="http://www.w3.org/2000/svg"
   xmlns:svg="http://www.w3.org/2000/svg">
  <sodipodi:namedview
     id="namedview4"
     pagecolor="#ffffff"
     bordercolor="#000000"
     borderopacity="0.25"
     inkscape:showpageshadow="2"
     inkscape:pageopacity="0.0"
     inkscape:pagecheckerboard="0"
     inkscape:deskcolor="#d1d1d1"
     showborder="false"
     inkscape:zoom="14.634921"
     inkscape:cx="125.52169"
     inkscape:cy="35.975597"
     inkscape:window-width="3840"
     inkscape:window-height="2054"
     inkscape:window-x="-11"
     inkscape:window-y="-11"
     inkscape:window-maximized="1"
     inkscape:current-layer="svg4" />
  <path
     fill="url(#a)"
     d="m 24.212527,49.157 c -1.552,-3.116 8.626,-21.57 11.788,-21.57 3.167,0.002 13.323,18.488 11.788,21.57 -1.535,3.081 -22.025,3.115 -23.577,0 z"
     id="path1"
     style="fill:url(#linearGradient4)" />
  <path
     fill="url(#a)"
     fill-rule="evenodd"
     d="M 0.48152748,64.995 C -4.1934725,55.605 26.478527,0 36.001527,0 c 9.533,0 40.153,55.713 35.527,64.995 -4.626,9.282 -66.3679995,9.391 -71.04499952,0 M 12.738527,56.847 c 3.065,6.152 43.518,6.084 46.548,0 3.03,-6.086 -17.033,-42.587 -23.275,-42.587 -6.242,0 -26.3399995,36.434 -23.276,42.587 z"
     clip-rule="evenodd"
     id="path2"
     style="fill:url(#linearGradient5)" />
  <defs
     id="defs4">
    <linearGradient
       id="a"
       x1="47"
       x2="107"
       y1="84"
       y2="117"
       gradientTransform="translate(-34.501,-54)"
       gradientUnits="userSpaceOnUse">
      <stop
         offset="0"
         stop-color="#AA5CC3"
         id="stop3" />
      <stop
         offset="1"
         stop-color="#00A4DC"
         id="stop4" />
    </linearGradient>
    <linearGradient
       inkscape:collect="always"
       xlink:href="#a"
       id="linearGradient4"
       gradientUnits="userSpaceOnUse"
       gradientTransform="translate(-34.999473,-54.001)"
       x1="47"
       y1="84"
       x2="107"
       y2="117" />
    <linearGradient
       inkscape:collect="always"
       xlink:href="#a"
       id="linearGradient5"
       gradientUnits="userSpaceOnUse"
       gradientTransform="translate(-34.999473,-54.001)"
       x1="47"
       y1="84"
       x2="107"
       y2="117" />
  </defs>
</svg>
